<svg xmlns="http://www.w3.org/2000/svg" xmlns:xlink="http://www.w3.org/1999/xlink" viewBox="0 0 523.58 104.94"><defs><style>.cls-1,.cls-7{fill:none;}.cls-2{isolation:isolate;}.cls-3{fill:url(#radial-gradient);}.cls-4{fill:#d01f26;}.cls-5{clip-path:url(#clip-path);}.cls-6{mix-blend-mode:multiply;}.cls-10,.cls-7{stroke:#80282b;stroke-miterlimit:10;}.cls-7{stroke-width:0.53px;}.cls-8{fill:#c0d72f;}.cls-9{fill:#fff;}.cls-10{fill:#d12028;stroke-width:0.36px;}.cls-11{fill:#85754d;}</style><radialGradient id="radial-gradient" cx="342.1" cy="66.07" r="141.82" gradientUnits="userSpaceOnUse"><stop offset="0" stop-color="#85743b"/><stop offset="0.55" stop-color="#83723a"/><stop offset="0.75" stop-color="#7c6d36"/><stop offset="0.89" stop-color="#716230"/><stop offset="1" stop-color="#605427"/></radialGradient><clipPath id="clip-path" transform="translate(-98.21 -199.53)"><path class="cls-1" d="M130.37,231.41h0v-2.73h1a23.87,23.87,0,0,1,10.81,2.44l29.21,16.81,29-16.67a22.61,22.61,0,0,1,10.37-2.7c.53,0,1.06,0,1.57.07h.11v2.79l0,.13.36,65.64-.24-.36a14.51,14.51,0,0,0-8.29-6.06l-.1,0,3-58.83-35.73,25.45,0,0,0,0-35.69-25.45,2.92,58.86-.1,0a15.53,15.53,0,0,0-8.24,6.22l-.24.36Z"/></clipPath></defs><g class="cls-2"><g id="Layer_2" data-name="Layer 2"><polygon class="cls-3" points="195.45 67.89 185.87 51.13 169.08 51.13 169.33 55 172.53 55 174.09 56.89 174.09 77.62 171.42 79.66 169.22 79.66 169.22 83.13 184.02 83.13 184.02 79.66 181.84 79.66 178.81 77.55 178.82 63.47 190.37 83.13 192.8 83.13 204.54 60.55 204.54 77.52 201.25 79.66 199.25 79.66 199.25 83.13 221.69 83.13 221.69 79.66 219.69 79.66 216.4 77.52 216.4 56.73 219.72 54.6 221.69 54.6 221.69 51.13 203.99 51.13 195.45 67.89"/><path class="cls-3" d="M436.9,277l-16.21-26.73h-2.44l-12.13,22.15-2.56,4.4-3.07,2.36H398.7v3.47h14.87v-3.47h-2l-2.83-1.84L410.6,274h10.68l2.24,3.64-1.69,1.56H420v3.47h21.17v-3.47h-1.71Zm-23.77-7.7,2.61-5,2.84,5Z" transform="translate(-98.21 -199.53)"/><path class="cls-3" d="M359.56,277l-16.21-26.73h-2.43l-12.14,22.15-2.56,4.4-3.07,2.36h-1.78v3.47h14.86v-3.47h-2l-2.82-1.84,1.81-3.36h10.68l2.24,3.64-1.69,1.56h-1.82v3.47h21.16v-3.47h-1.7Zm-23.77-7.7,2.61-5,2.84,5Z" transform="translate(-98.21 -199.53)"/><path class="cls-3" d="M400.54,269.43l-4.49-.68-.71,1.66a9.61,9.61,0,0,1-.64,1.32,20.51,20.51,0,0,1-1.5,2.1,10.2,10.2,0,0,1-2.47,2.3,13.26,13.26,0,0,1-6.93,2.05,9,9,0,0,1-3.05-.35,7.06,7.06,0,0,1-2.41-1.2,7.37,7.37,0,0,1-1.84-2.06l-.12-.21a8.66,8.66,0,0,1-.81-1.81,21.08,21.08,0,0,1-.69-3.13,24,24,0,0,1-.25-3.28c0-4.3.91-7.13,3-9.45a5.55,5.55,0,0,1,1.95-1.37,6.24,6.24,0,0,1,2.41-.48,12.77,12.77,0,0,1,5.71,1.37,18.43,18.43,0,0,1,5.38,3.51,25.29,25.29,0,0,1,3,3.58l.44.62h2.76l-.63-13.73H396.4l-.95.68-.26.21a19.91,19.91,0,0,1-2.54,1.73,2.21,2.21,0,0,1-1.11.28,3.06,3.06,0,0,1-1.45-.55,19.83,19.83,0,0,0-4.4-1.84,18.06,18.06,0,0,0-4.57-.55,20.17,20.17,0,0,0-13.27,4.65c-4.2,3.46-6.33,7.49-6.33,11.94a13.09,13.09,0,0,0,3.77,9.28,21.74,21.74,0,0,0,7.7,5.14,25,25,0,0,0,9.35,1.83c5.93,0,10.72-2,14.21-5.94a16.13,16.13,0,0,0,1.88-2.7,23.1,23.1,0,0,0,1.48-3.22Z" transform="translate(-98.21 -199.53)"/><polygon class="cls-3" points="372.88 54.58 375.03 54.58 377.59 56.58 377.59 66.28 359.28 51.13 342.48 51.13 342.48 54.58 344.63 54.58 348.53 57.8 348.53 77.53 345.66 79.66 343.56 79.66 343.43 83.13 358.35 83.13 358.35 79.68 356.11 79.68 353.22 77.57 353.22 61.63 379.22 83.13 382.21 83.13 382.21 56.67 385.39 54.58 387.56 54.58 387.71 51.13 372.88 51.13 372.88 54.58"/><path class="cls-3" d="M517.08,254.13h2.18l2.48,2v13.46a9,9,0,0,1-.76,3.69,8.73,8.73,0,0,1-2.12,3,9.26,9.26,0,0,1-3.22,1.77,11.32,11.32,0,0,1-4.23.51c-2.49-.08-3.5-.51-4.49-1.27-1.16-.89-1.68-2.25-1.68-4.4V256.22l3.24-2.09h2.09v-3.48H488v3.48h2l3.33,2.13v12.52a15.1,15.1,0,0,0,.76,5,11.47,11.47,0,0,0,2.47,4.06,15.67,15.67,0,0,0,6.06,4,22.87,22.87,0,0,0,8,1.34,19.93,19.93,0,0,0,8.31-1.6,12.35,12.35,0,0,0,5.56-4.83,13.76,13.76,0,0,0,1.93-7.32V256.24l3.25-2.11h2.21v-3.48H517.08Z" transform="translate(-98.21 -199.53)"/><path class="cls-3" d="M571.19,255.17a18.47,18.47,0,0,0-6-3.36,22.62,22.62,0,0,0-7.33-1.16h-24v3.48H536l3.36,2.13v20.83l-3.28,2.1h-2v3.47H557a26.7,26.7,0,0,0,7.76-1.09,19.55,19.55,0,0,0,6.3-3.18,14.87,14.87,0,0,0,4.19-5.09,14.35,14.35,0,0,0,1.48-6.43,14.79,14.79,0,0,0-1.45-6.52A15.82,15.82,0,0,0,571.19,255.17Zm-8,19.34a3.84,3.84,0,0,1-1.95,2.44,9.71,9.71,0,0,1-4.72,1h-5.24V255.29H556a11.25,11.25,0,0,1,3.48.43,5.2,5.2,0,0,1,2.15,1.36,8,8,0,0,1,1.77,3.74,23.65,23.65,0,0,1,.66,6.3A23.1,23.1,0,0,1,563.16,274.51Z" transform="translate(-98.21 -199.53)"/><path class="cls-3" d="M620.68,261.22a15.79,15.79,0,0,0-3.11-4.62,19.81,19.81,0,0,0-7.44-4.9,26.2,26.2,0,0,0-9.46-1.67,22.76,22.76,0,0,0-7.62,1.29,21.9,21.9,0,0,0-6.53,3.59,17.84,17.84,0,0,0-4.56,5.34,13.13,13.13,0,0,0,1.23,14.67,19.64,19.64,0,0,0,7.63,5.91A24.3,24.3,0,0,0,601,283a24.65,24.65,0,0,0,10.27-2.16,19.43,19.43,0,0,0,7.64-5.95,13.74,13.74,0,0,0,2.91-8.44A13.2,13.2,0,0,0,620.68,261.22Zm-12.06,7.66-.06.87a14.72,14.72,0,0,1-.34,2.55,15,15,0,0,1-.92,3.11,5.16,5.16,0,0,1-2.23,2.14,8.56,8.56,0,0,1-3.82.74c-2.45,0-4.25-.51-5.38-1.55a6.61,6.61,0,0,1-2-3.72,19.58,19.58,0,0,1-.32-2.6l-.06-.8c0-.66-.09-1.1-.09-1.77,0-1.7.05-3.35.17-4.92a16.81,16.81,0,0,1,.4-3.09,8.67,8.67,0,0,1,.93-2.29,4.87,4.87,0,0,1,2.23-2.08,10.08,10.08,0,0,1,4.18-.71,8.12,8.12,0,0,1,4.45,1,5.71,5.71,0,0,1,2.19,3.31,20.62,20.62,0,0,1,.79,6.5C608.76,266.91,608.7,267.78,608.62,268.88Z" transform="translate(-98.21 -199.53)"/><path class="cls-4" d="M130.37,231.41h0v-2.73h1a23.87,23.87,0,0,1,10.81,2.44l29.21,16.81,29-16.67a22.61,22.61,0,0,1,10.37-2.7c.53,0,1.06,0,1.57.07h.11v2.79l0,.13.36,65.64-.24-.36a14.51,14.51,0,0,0-8.29-6.06l-.1,0,3-58.83-35.73,25.45,0,0,0,0-35.69-25.45,2.92,58.86-.1,0a15.53,15.53,0,0,0-8.24,6.22l-.24.36Z" transform="translate(-98.21 -199.53)"/><g class="cls-5"><g class="cls-6"><line class="cls-7" x1="30.64" y1="86.84" x2="116.56" y2="86.84"/><line class="cls-7" x1="30.64" y1="88.65" x2="116.56" y2="88.65"/><line class="cls-7" x1="30.64" y1="90.47" x2="116.56" y2="90.47"/><g class="cls-6"><line class="cls-7" x1="30.64" y1="32.27" x2="116.56" y2="32.27"/><line class="cls-7" x1="30.64" y1="34.08" x2="116.56" y2="34.08"/><line class="cls-7" x1="30.64" y1="28.5" x2="116.56" y2="28.5"/><line class="cls-7" x1="30.64" y1="30.32" x2="116.56" y2="30.32"/><line class="cls-7" x1="30.64" y1="35.91" x2="116.56" y2="35.91"/><line class="cls-7" x1="30.64" y1="37.72" x2="116.56" y2="37.72"/><line class="cls-7" x1="30.64" y1="39.54" x2="116.56" y2="39.54"/><line class="cls-7" x1="30.64" y1="41.36" x2="116.56" y2="41.36"/><line class="cls-7" x1="30.64" y1="43.18" x2="116.56" y2="43.18"/><line class="cls-7" x1="30.64" y1="45" x2="116.56" y2="45"/><line class="cls-7" x1="30.64" y1="46.82" x2="116.56" y2="46.82"/><line class="cls-7" x1="30.64" y1="48.64" x2="116.56" y2="48.64"/><line class="cls-7" x1="30.64" y1="50.46" x2="116.56" y2="50.46"/><line class="cls-7" x1="30.64" y1="52.28" x2="116.56" y2="52.28"/><line class="cls-7" x1="30.64" y1="54.1" x2="116.56" y2="54.1"/><line class="cls-7" x1="30.64" y1="55.92" x2="116.56" y2="55.92"/><line class="cls-7" x1="30.64" y1="57.73" x2="116.56" y2="57.73"/><line class="cls-7" x1="30.64" y1="59.55" x2="116.56" y2="59.55"/><line class="cls-7" x1="30.64" y1="61.37" x2="116.56" y2="61.37"/><line class="cls-7" x1="30.64" y1="63.19" x2="116.56" y2="63.19"/><line class="cls-7" x1="30.64" y1="65.01" x2="116.56" y2="65.01"/><line class="cls-7" x1="30.64" y1="66.83" x2="116.56" y2="66.83"/><line class="cls-7" x1="30.64" y1="68.65" x2="116.56" y2="68.65"/><line class="cls-7" x1="30.64" y1="70.47" x2="116.56" y2="70.47"/><line class="cls-7" x1="30.64" y1="74.11" x2="116.56" y2="74.11"/><line class="cls-7" x1="30.64" y1="75.92" x2="116.56" y2="75.92"/><line class="cls-7" x1="30.64" y1="77.74" x2="116.56" y2="77.74"/><line class="cls-7" x1="30.64" y1="79.56" x2="116.56" y2="79.56"/><line class="cls-7" x1="30.64" y1="81.38" x2="116.56" y2="81.38"/><line class="cls-7" x1="30.64" y1="83.2" x2="116.56" y2="83.2"/><line class="cls-7" x1="30.64" y1="85.02" x2="116.56" y2="85.02"/><line class="cls-7" x1="30.64" y1="92.3" x2="116.56" y2="92.3"/><line class="cls-7" x1="30.64" y1="94.11" x2="116.56" y2="94.11"/><line class="cls-7" x1="30.64" y1="95.93" x2="116.56" y2="95.93"/><line class="cls-7" x1="30.64" y1="97.75" x2="116.56" y2="97.75"/><line class="cls-7" x1="30.64" y1="99.57" x2="116.56" y2="99.57"/><line class="cls-7" x1="30.64" y1="72.29" x2="116.56" y2="72.29"/></g></g></g><path class="cls-8" d="M171.13,304.2a21.57,21.57,0,1,1,21.57-21.57A21.58,21.58,0,0,1,171.13,304.2Z" transform="translate(-98.21 -199.53)"/><path class="cls-9" d="M171.13,297.07a14.44,14.44,0,1,1,14.43-14.44A14.44,14.44,0,0,1,171.13,297.07Z" transform="translate(-98.21 -199.53)"/><path class="cls-10" d="M171.13,293.33a10.7,10.7,0,1,1,10.7-10.7A10.7,10.7,0,0,1,171.13,293.33Z" transform="translate(-98.21 -199.53)"/><path class="cls-11" d="M171.13,267.9a14.73,14.73,0,1,0,14.73,14.73A14.74,14.74,0,0,0,171.13,267.9Zm0,28.83a14.1,14.1,0,1,1,14.1-14.1A14.1,14.1,0,0,1,171.13,296.73Z" transform="translate(-98.21 -199.53)"/><path class="cls-11" d="M171.13,260.79A21.84,21.84,0,1,0,193,282.63,21.84,21.84,0,0,0,171.13,260.79Zm0,43a21.21,21.21,0,1,1,21.21-21.21A21.24,21.24,0,0,1,171.13,303.84Z" transform="translate(-98.21 -199.53)"/><path class="cls-11" d="M171,280.32a3.4,3.4,0,0,1-3.45,3.72h-.78v3.87h-1.84V277.58c0-.35-.11-.66-.4-.74v-.18h2.76C168.66,276.66,171,276.87,171,280.32Zm-1.83,0c0-1.09-.39-2.12-1.59-2.12h-.85v4.24h.89C168.48,282.46,169.15,281.73,169.15,280.34Z" transform="translate(-98.21 -199.53)"/><path class="cls-11" d="M170.13,287.22a.78.78,0,1,1-.78-.78A.78.78,0,0,1,170.13,287.22Z" transform="translate(-98.21 -199.53)"/><path class="cls-11" d="M178.73,280.32a3.4,3.4,0,0,1-3.45,3.72h-.79v3.87h-1.83V277.58c0-.35-.11-.66-.4-.74v-.18H175C176.41,276.66,178.73,276.87,178.73,280.32Zm-1.83,0c0-1.09-.39-2.12-1.59-2.12h-.85v4.24h.88C176.23,282.46,176.9,281.73,176.9,280.34Z" transform="translate(-98.21 -199.53)"/><path class="cls-11" d="M177.88,287.22a.79.79,0,1,1-.78-.78A.78.78,0,0,1,177.88,287.22Z" transform="translate(-98.21 -199.53)"/><polygon class="cls-11" points="56.88 87.11 56.91 87.23 56.79 87.63 55.9 87.87 55.82 87.58 56.08 87.05 56.24 87.01 56.2 86.88 54.99 87.2 55.03 87.34 55.17 87.3 55.67 87.62 55.75 87.91 54.77 88.18 54.55 87.42 55.09 86.5 55.18 86.47 55.15 86.34 54.17 86.64 54.98 89.55 55.12 89.51 55.08 89.39 55.2 88.98 57.03 88.48 57.34 88.76 57.37 88.89 57.51 88.85 57.01 87.07 56.88 87.11"/><path class="cls-11" d="M154.69,285.15v.09h.14l-.07-1.06h-.14v.1l-.59.28,0,0-.07-1.12.41-.3.22.21v.11h.15l-.11-1.71h-.15v.1l-.2.27-2.21,1.57v.12l1.95.93Zm-.9-1.63.06.94-.82-.39Z" transform="translate(-98.21 -199.53)"/><path class="cls-11" d="M152.21,280.78l.28-.31,1.88.31.15.37,0,.12.15,0,.35-2.11a2.61,2.61,0,0,0,0-.49,1.19,1.19,0,0,0-.09-.42.56.56,0,0,0-.45-.42.41.41,0,0,0-.31.06,1,1,0,0,0-.2.17,1.14,1.14,0,0,0-.15.23l-.1.25v-.2a.6.6,0,0,0-.06-.24.7.7,0,0,0-.12-.23.38.38,0,0,0-.25-.16.46.46,0,0,0-.3.07.79.79,0,0,0-.27.25,1.66,1.66,0,0,0-.21.4,2.44,2.44,0,0,0-.14.5l-.32,1.92.14,0Zm2.61-1.49-.11.64-1.1-.18.09-.56a.51.51,0,0,1,.18-.34.71.71,0,0,1,.46-.05.77.77,0,0,1,.26.07.37.37,0,0,1,.17.13A.37.37,0,0,1,154.82,279.29Zm-2.23-.47a.44.44,0,0,1,.12-.15.38.38,0,0,1,.17-.06.66.66,0,0,1,.24,0,.64.64,0,0,1,.37.16.36.36,0,0,1,.07.32l-.11.62-1-.16.08-.49A1.26,1.26,0,0,1,152.59,278.82Z" transform="translate(-98.21 -199.53)"/><path class="cls-11" d="M156.71,274l-.37.25-.9.1-.1.23a1.43,1.43,0,0,1-.11.21l-.06.1a2.34,2.34,0,0,0,.09-.33,1.67,1.67,0,0,0,.07-.47.72.72,0,0,0-.09-.35.43.43,0,0,0-.23-.21.54.54,0,0,0-.31,0,.83.83,0,0,0-.32.14,1.43,1.43,0,0,0-.31.33,3,3,0,0,0-.27.47l-.86,2,.13.06.05-.11.34-.23,1.74.74.07.41-.05.11.13.06.74-1.69-.13-.06,0,.11-.35.24-.75-.32.19-.44,1.35-.15.53-1.2-.13-.06Zm-2,1.65-1-.44.21-.48c.18-.41.43-.54.78-.39a.61.61,0,0,1,.26.19.39.39,0,0,1,.09.26.86.86,0,0,1-.09.35Z" transform="translate(-98.21 -199.53)"/><polygon class="cls-11" points="59.97 72.4 59.59 72.56 58.04 71.47 58.06 71.06 58.13 70.96 58.01 70.88 56.94 72.37 57.06 72.45 57.13 72.36 57.52 72.2 59.06 73.28 59.04 73.69 58.97 73.79 59.09 73.87 60.16 72.38 60.04 72.3 59.97 72.4"/><path class="cls-11" d="M160.54,268.39l0-.05-.15.07,0,0c0,.1.07.19.09.26a1.52,1.52,0,0,1,0,.23,1.45,1.45,0,0,1,0,.35,1.36,1.36,0,0,1-.14.33,1.39,1.39,0,0,1-.21.27,1.06,1.06,0,0,1-.26.17.77.77,0,0,1-.27.07.74.74,0,0,1-.29,0l-.22-.09-.24-.16a2.19,2.19,0,0,1-.22-.2,1.3,1.3,0,0,1-.44-.86.49.49,0,0,1,.05-.24.8.8,0,0,1,.15-.21,1.26,1.26,0,0,1,.5-.28,1.7,1.7,0,0,1,.62-.09,2.37,2.37,0,0,1,.43,0h0l.09-.08-.75-.7-.08.07v.1a2,2,0,0,1-.07.27.24.24,0,0,1-.07.13.62.62,0,0,1-.17.07,1.5,1.5,0,0,0-.38.15,1.24,1.24,0,0,0-.31.23,1.71,1.71,0,0,0-.56,1.05,1.2,1.2,0,0,0,.28,1.07,1.08,1.08,0,0,0,.75.32h.06a1.9,1.9,0,0,0,.72-.15,2.08,2.08,0,0,0,.69-.44,1.53,1.53,0,0,0,.54-1.18,1,1,0,0,0,0-.26A1.61,1.61,0,0,0,160.54,268.39Z" transform="translate(-98.21 -199.53)"/><path class="cls-11" d="M164.47,267l-.34-.06-2.38-1.23,0,0-.1.06,0,2.14-.09.78-.08,0,.07.12.93-.53-.07-.12-.09.05-.51-.39v0l1-.57.45.24-.1.28-.09.06.07.12,1.5-.86-.07-.12Zm-2.66.61,0-.89.84.42Z" transform="translate(-98.21 -199.53)"/><path class="cls-11" d="M170,263.91a1.59,1.59,0,0,0-.41-.36,1.67,1.67,0,0,0-.56-.18,2,2,0,0,0-.64,0l-2,.33h0l0,.13.13,0,.39.16.31,1.85-.32.27-.12,0,0,.14,1.95-.32a2.15,2.15,0,0,0,.65-.19,1.5,1.5,0,0,0,.49-.35,1.1,1.1,0,0,0,.28-.46,1.06,1.06,0,0,0,0-.53A1.28,1.28,0,0,0,170,263.91Zm-1.88,2-.37-2.24.5-.08a1.1,1.1,0,0,1,.35,0,.54.54,0,0,1,.23.11.82.82,0,0,1,.25.34,2.18,2.18,0,0,1,.17.6,2,2,0,0,1,0,.64.66.66,0,0,1-.19.38.74.74,0,0,1-.41.18Z" transform="translate(-98.21 -199.53)"/><polygon class="cls-11" points="76.14 64.83 76.22 63.82 73.18 63.57 73.13 63.56 73.12 63.71 73.24 63.71 73.59 63.96 73.43 65.83 73.06 66.02 72.94 66.01 72.92 66.15 75.95 66.4 75.99 66.4 76.14 65.3 76.01 65.29 75.99 65.4 75.16 66.17 74.31 66.11 74.4 65 74.75 65.03 75.16 65.42 75.14 65.64 75.28 65.65 75.4 64.28 75.25 64.27 75.24 64.44 74.75 64.87 74.42 64.84 74.5 63.84 75.34 63.91 76.01 64.72 76 64.82 76.14 64.83"/><polygon class="cls-11" points="81.71 66.97 81.83 67.03 82.34 65.93 79.49 64.66 78.99 65.75 79.12 65.81 79.17 65.7 80.26 65.17 80.44 65.25 79.58 67.14 79.15 67.19 79.02 67.14 78.96 67.27 80.7 68.04 80.76 67.92 80.62 67.85 80.39 67.52 81.27 65.62 81.44 65.7 81.76 66.87 81.71 66.97"/><path class="cls-11" d="M180.76,267.75,180,268l-.07-.06-.09.12.86.64.08-.11-.08-.06.17-.62h0l.91.68,0,.5-.3,0-.09-.07-.09.11,1.39,1,.08-.11-.08-.06-.08-.33.25-2.64v0l-.1-.07Zm1.16-.32-.08.92-.76-.57Z" transform="translate(-98.21 -199.53)"/><path class="cls-11" d="M185.87,272.34a.89.89,0,0,0-.08-.52l-.12-.24.15.13a1.2,1.2,0,0,0,.23.12l.25.06a.39.39,0,0,0,.28-.08.47.47,0,0,0,.16-.27,1,1,0,0,0,0-.37,1.92,1.92,0,0,0-.16-.41,2.45,2.45,0,0,0-.3-.44L185,268.81l-.12.09.08.1.05.4-1.48,1.19-.38-.13-.08-.09-.11.09,1.37,1.66a2.31,2.31,0,0,0,.36.33,1.37,1.37,0,0,0,.38.22.79.79,0,0,0,.28.06.52.52,0,0,0,.34-.12A.42.42,0,0,0,185.87,272.34Zm.32-1.42a.85.85,0,0,1-.16.17.69.69,0,0,1-.38.18.41.41,0,0,1-.29-.17l-.4-.49.8-.64.31.38a.86.86,0,0,1,.15.22.42.42,0,0,1,0,.19A.29.29,0,0,1,186.19,270.92Zm-1.35-.21.36.43a.48.48,0,0,1,.14.37.76.76,0,0,1-.26.37.79.79,0,0,1-.23.14.29.29,0,0,1-.2,0,.34.34,0,0,1-.26-.15l-.42-.5Z" transform="translate(-98.21 -199.53)"/><path class="cls-11" d="M188.57,273.88l0-.11-2.16-.13-.78-.15,0-.08-.13,0,.47,1,.13-.06,0-.09.44-.47h0l.5,1-.26.43-.29-.11,0-.1-.13.06.76,1.54.13-.06,0-.09.08-.33Zm-1,0-.49.79-.42-.85Z" transform="translate(-98.21 -199.53)"/><path class="cls-11" d="M187.74,277.38a1.88,1.88,0,0,0-.27.73,2.2,2.2,0,0,0,0,.81,1.57,1.57,0,0,0,.74,1.07,1.74,1.74,0,0,0,.25.11l.29.06h.05l0-.16h0l-.27-.06a1.38,1.38,0,0,1-.22-.1,1.13,1.13,0,0,1-.27-.22,1.18,1.18,0,0,1-.22-.28,1,1,0,0,1-.12-.32.79.79,0,0,1,0-.3.61.61,0,0,1,.08-.27.76.76,0,0,1,.17-.23,1.56,1.56,0,0,1,.19-.14l.27-.12.28-.09a1.4,1.4,0,0,1,1,.07.73.73,0,0,1,.18.17.7.7,0,0,1,.11.23,1.39,1.39,0,0,1,0,.57,1.77,1.77,0,0,1-.24.58c-.07.1-.16.21-.26.33l0,0,0,.11,1-.27v-.09l-.06,0,0,0a1.39,1.39,0,0,1-.21-.2.26.26,0,0,1-.07-.12.35.35,0,0,1,0-.19,1.15,1.15,0,0,0,.07-.39,1.36,1.36,0,0,0,0-.39,1.71,1.71,0,0,0-.63-1,1.23,1.23,0,0,0-1.07-.31A1.06,1.06,0,0,0,187.74,277.38Z" transform="translate(-98.21 -199.53)"/><path class="cls-11" d="M190.48,282.15a2,2,0,0,0-.29-.56,1.47,1.47,0,0,0-.44-.39,1,1,0,0,0-.52-.15h0a1.07,1.07,0,0,0-.66.22,1.61,1.61,0,0,0-.5.64,2.1,2.1,0,0,0-.21.86,2.21,2.21,0,0,0,.17.89,1.52,1.52,0,0,0,.48.65,1.09,1.09,0,0,0,.68.26h0a1.1,1.1,0,0,0,.4-.08,1.4,1.4,0,0,0,.39-.26,1.62,1.62,0,0,0,.42-.62,2.28,2.28,0,0,0,.16-.8A2.39,2.39,0,0,0,190.48,282.15Zm-.54,1.37a2.08,2.08,0,0,1-.66.06l-.43,0-.3-.05a.67.67,0,0,1-.24-.09.49.49,0,0,1-.21-.24.86.86,0,0,1-.07-.38.78.78,0,0,1,.17-.53.65.65,0,0,1,.37-.19,1,1,0,0,1,.26,0h.28l.44,0a2,2,0,0,1,.32.05.92.92,0,0,1,.25.09.61.61,0,0,1,.21.24,1.15,1.15,0,0,1,.06.41,1,1,0,0,1-.11.44A.57.57,0,0,1,189.94,283.52Z" transform="translate(-98.21 -199.53)"/><path class="cls-11" d="M189.85,286a.8.8,0,0,0-.4-.25.58.58,0,0,0-.32,0,.94.94,0,0,0-.49.34,1.22,1.22,0,0,0-.17.28,3.58,3.58,0,0,0-.19.45l0,.06a.13.13,0,0,0,0,.07,3.77,3.77,0,0,1-.15.38l-.11.21a.55.55,0,0,1-.16.15.24.24,0,0,1-.2,0,.28.28,0,0,1-.22-.2.71.71,0,0,1,0-.43,1.44,1.44,0,0,1,.15-.37,1.78,1.78,0,0,1,.25-.36,2.08,2.08,0,0,1,.34-.32,2.6,2.6,0,0,1,.47-.29h0l0-.12-1-.25,0,.11.07.17a1.64,1.64,0,0,1,.09.27c0,.06,0,.1,0,.11s0,.08-.14.21l-.21.27c-.05.09-.1.17-.14.26a1.07,1.07,0,0,0-.09.27,1.22,1.22,0,0,0,0,.49.85.85,0,0,0,.12.4.78.78,0,0,0,.23.25,1,1,0,0,0,.3.14.79.79,0,0,0,.7-.16,1.21,1.21,0,0,0,.28-.31,4,4,0,0,0,.26-.54l.06-.13v0l0-.05v0c.05-.12.09-.23.14-.33l.1-.2a.42.42,0,0,1,.14-.13.2.2,0,0,1,.16,0,.26.26,0,0,1,.13.1.38.38,0,0,1,.06.22.76.76,0,0,1,0,.29,1.63,1.63,0,0,1-.14.34,2.27,2.27,0,0,1-.22.32,2.13,2.13,0,0,1-.31.29,1.09,1.09,0,0,1-.17.13l-.24.13h0l0,.1.88.23,0-.1,0-.09c-.12-.26-.12-.37-.11-.41s0-.07.11-.16A1.77,1.77,0,0,0,190,287a1.29,1.29,0,0,0,0-.55A1.19,1.19,0,0,0,189.85,286Z" transform="translate(-98.21 -199.53)"/><polygon class="cls-11" points="62.37 95.67 63.55 95.34 63 96.44 63.88 97.29 62.66 97.37 62.35 98.55 61.68 97.53 60.5 97.86 61.05 96.77 60.17 95.91 61.39 95.84 61.69 94.65 62.37 95.67"/><polygon class="cls-11" points="73.65 100.23 74.82 99.9 74.27 100.98 75.14 101.82 73.93 101.9 73.64 103.07 72.97 102.06 71.8 102.39 72.34 101.3 71.48 100.46 72.69 100.39 72.98 99.22 73.65 100.23"/><polygon class="cls-11" points="84.25 95.43 83.07 95.09 83.62 96.19 82.74 97.05 83.96 97.12 84.27 98.31 84.94 97.29 86.12 97.62 85.58 96.52 86.45 95.67 85.23 95.59 84.93 94.41 84.25 95.43"/><path class="cls-11" d="M157.55,228.84h.94a2.21,2.21,0,1,1,4.42,0h2.74a2.21,2.21,0,1,1,4.42,0h2.74a2.21,2.21,0,1,1,4.42,0H180a2.21,2.21,0,1,1,4.42,0h.78l4.28-5.29H152.84Z" transform="translate(-98.21 -199.53)"/><path class="cls-11" d="M170,206.38c-.46,12.79-2.17,15.79-2.17,15.79h6.54s-1.74-2.57-2.17-15.79Zm1.07.52a.26.26,0,0,1,.26.26.27.27,0,1,1-.53,0A.26.26,0,0,1,171.1,206.9Zm0,1.49a.27.27,0,0,1,.26.27.27.27,0,1,1-.53,0A.27.27,0,0,1,171.1,208.39Zm0,1.74a.35.35,0,0,1,0,.69.35.35,0,1,1,0-.69Zm0,2a.58.58,0,1,1-.58.58A.58.58,0,0,1,171.1,212.16Zm0,2.38a.58.58,0,1,1-.58.57A.58.58,0,0,1,171.1,214.54Zm0,6.71a.8.8,0,0,1,0-1.6.8.8,0,0,1,0,1.6Zm0-2.78a.79.79,0,0,1-.8-.79.8.8,0,0,1,.8-.8.79.79,0,0,1,.79.8A.79.79,0,0,1,171.1,218.47Z" transform="translate(-98.21 -199.53)"/><path class="cls-11" d="M160.91,222.17h4.93c-5.34-8.44-.44-13.93,2.54-15.87l-1.08-.57C160.24,207.8,153.89,214.17,160.91,222.17Zm5.67-15.81a.27.27,0,1,1,0,.54.27.27,0,1,1,0-.54Zm-6.69,7.92a.67.67,0,1,1,.67.67A.67.67,0,0,1,159.89,214.28Zm1,3.85a.8.8,0,1,1,.8-.79A.8.8,0,0,1,160.89,218.13Zm4-10.71a.35.35,0,0,1,.35.35.35.35,0,0,1-.7,0A.35.35,0,0,1,164.85,207.42Zm-1.62,1.24a.45.45,0,1,1-.45.44A.44.44,0,0,1,163.23,208.66Zm-.18,11.64a.83.83,0,0,1-.83.84.84.84,0,1,1,0-1.67A.83.83,0,0,1,163.05,220.3Zm-1.58-9.63a.58.58,0,1,1-.58.58A.58.58,0,0,1,161.47,210.67Z" transform="translate(-98.21 -199.53)"/><path class="cls-11" d="M162,207.3l2.14-1.32c-8.05-1.82-22.53,3.07-11.7,16.19h5.48C148.46,212.07,157.66,206.88,162,207.3Zm-.84-1.17a.25.25,0,0,1,.24.25.25.25,0,1,1-.49,0A.25.25,0,0,1,161.14,206.13Zm-2,.13a.27.27,0,1,1-.27.27A.27.27,0,0,1,159.18,206.26Zm-2,.37a.35.35,0,0,1,.35.35.35.35,0,0,1-.7,0A.35.35,0,0,1,157.17,206.63Zm-2,.69a.45.45,0,1,1-.45.45A.45.45,0,0,1,155.18,207.32Zm-3.79,3.16a.67.67,0,1,1,0,1.34.67.67,0,0,1,0-1.34Zm-1.34,4a.67.67,0,1,1,.67.67A.67.67,0,0,1,150.05,214.44Zm1.74,4a.79.79,0,0,1-.8-.79.8.8,0,0,1,.8-.8.79.79,0,0,1,.79.8A.79.79,0,0,1,151.79,218.47Zm1.37-10.1a.58.58,0,0,1,0,1.15.58.58,0,1,1,0-1.15Zm.35,12.91a.84.84,0,0,1-.84-.83.85.85,0,0,1,.84-.84.84.84,0,0,1,.83.84A.83.83,0,0,1,153.51,221.28Z" transform="translate(-98.21 -199.53)"/><path class="cls-11" d="M173.33,205.32a2.31,2.31,0,1,0-4.59,0Z" transform="translate(-98.21 -199.53)"/><rect class="cls-11" x="170.06" y="199.94" width="1.96" height="1.96" transform="translate(-190.18 -19.74) rotate(-45)"/><path class="cls-11" d="M176.58,222.17h4.93c6.71-8.19.67-14.37-6.38-16.44l-1.09.57C177,208.24,182,213.24,176.58,222.17Zm4.95-4a.8.8,0,0,1,0-1.59.8.8,0,1,1,0,1.59Zm1-3.85a.68.68,0,0,1-.68.67.68.68,0,0,1,0-1.35A.68.68,0,0,1,182.54,214.28ZM181,210.67a.58.58,0,0,1,0,1.15.58.58,0,1,1,0-1.15Zm.08,9.63a.84.84,0,1,1-.83-.83A.83.83,0,0,1,181,220.3Zm-1.84-11.64a.45.45,0,1,1-.45.44A.44.44,0,0,1,179.2,208.66Zm-1.62-1.24a.35.35,0,0,1,.35.35.35.35,0,0,1-.35.34.34.34,0,0,1-.35-.34A.35.35,0,0,1,177.58,207.42Zm-1.74-.52a.27.27,0,1,1,.27-.27A.27.27,0,0,1,175.84,206.9Z" transform="translate(-98.21 -199.53)"/><path class="cls-11" d="M178.31,206l2.13,1.32c4.63-.42,13.58,4.77,4.08,14.87H190C200.83,209.05,186.34,204.16,178.31,206Zm3,.65a.25.25,0,0,1-.25-.25.25.25,0,1,1,.49,0A.25.25,0,0,1,181.29,206.63Zm9.74,3.85a.67.67,0,1,1-.67.67A.67.67,0,0,1,191,210.48Zm-7.79-3.69a.27.27,0,0,1,0-.53.27.27,0,1,1,0,.53Zm2,.53a.35.35,0,0,1-.35-.34.35.35,0,1,1,.35.34Zm2,.89a.45.45,0,1,1,.45-.44A.44.44,0,0,1,187.24,208.21Zm2,1.31a.58.58,0,1,1,.58-.57A.58.58,0,0,1,189.26,209.52Zm-.35,11.76a.83.83,0,0,1-.83-.83.84.84,0,0,1,.83-.84.85.85,0,0,1,.84.84A.84.84,0,0,1,188.91,221.28Zm1.72-2.81a.79.79,0,0,1-.79-.79.8.8,0,1,1,.79.79Zm1.07-3.36a.67.67,0,0,1,0-1.34.67.67,0,1,1,0,1.34Z" transform="translate(-98.21 -199.53)"/><path class="cls-11" d="M224.94,242.84c0-.14,0-.28,0-.42v-.06a2.85,2.85,0,0,1,0-1.05,3.41,3.41,0,0,1,.53-1,4.14,4.14,0,0,1,1-.92,4,4,0,0,1,.5-.27,3.77,3.77,0,0,0,.45-.23.12.12,0,0,1,.17,0,.13.13,0,0,1,0,.17,4.6,4.6,0,0,0-.29.63,2.09,2.09,0,0,1-.12.33c-.06.14-.11.27-.16.4a3.84,3.84,0,0,1-.26.61,9.19,9.19,0,0,1-.57.87,3.06,3.06,0,0,1-.46.42,2.42,2.42,0,0,0-.34.28,3.35,3.35,0,0,0-.26.34.17.17,0,0,1-.11.06H225A.15.15,0,0,1,224.94,242.84Zm.95,9.71a2.14,2.14,0,0,0,.58-.13h0l.26-.08h.09a.15.15,0,0,0,.07-.12h0a1.23,1.23,0,0,1,0-.27.06.06,0,0,0,0,0,3.42,3.42,0,0,0,.06-.79,3.69,3.69,0,0,0-.17-.84,7.55,7.55,0,0,0-.33-.83l-.07-.15a3.84,3.84,0,0,1-.14-.36,2.59,2.59,0,0,1-.1-.53.14.14,0,0,0-.09-.13.17.17,0,0,0-.15,0,2.67,2.67,0,0,0-.56.94,2.5,2.5,0,0,0,.16,1.94,15.85,15.85,0,0,0-2.05-1,11.06,11.06,0,0,0-1.23-.39.15.15,0,0,0-.15.07.14.14,0,0,0,0,.16l.58.72c.13.16.26.31.41.47a4.17,4.17,0,0,0,1.25,1,3.09,3.09,0,0,0,1.13.33Zm-2.36-2.9.18,0h.13a1.26,1.26,0,0,0,.23-.13,2,2,0,0,0,.62-.59,3.31,3.31,0,0,0,.39-.72,5.63,5.63,0,0,0,.26-.86l0-.12a3.6,3.6,0,0,1,.2-.58l.16-.29a.15.15,0,0,0,0-.16.15.15,0,0,0-.14,0,2.78,2.78,0,0,0-2,2.1A12.38,12.38,0,0,0,222.3,246a4.68,4.68,0,0,0-.45-.57.14.14,0,0,0-.15,0,.17.17,0,0,0-.09.14V246c0,.34,0,.66,0,1a3.71,3.71,0,0,0,.35,1.43,2.43,2.43,0,0,0,.65.83A1.66,1.66,0,0,0,223.53,249.65Zm-.49-4.16a1.75,1.75,0,0,0,.52.53l0,0a.86.86,0,0,0,.3.16h.05a.11.11,0,0,0,.08,0l0,0,.18-.08.06,0a3,3,0,0,0,.57-.38l.09-.08a3.42,3.42,0,0,0,.54-.63,6,6,0,0,0,.51-.89,2.65,2.65,0,0,1,.53-.75.15.15,0,0,0,0-.16.14.14,0,0,0-.14-.08,3,3,0,0,0-2.31,1.57,7.4,7.4,0,0,0-.68-2.84.16.16,0,0,0-.14-.07.12.12,0,0,0-.12.1l-.15.5c-.07.25-.14.5-.2.75a3.47,3.47,0,0,0-.13,1.35,2.3,2.3,0,0,0,.3,1Zm15.82.38a.12.12,0,0,0-.16,0,8.77,8.77,0,0,0-.93.9c-.24.28-.5.58-.74.89s-.44.49-.65.74a2.5,2.5,0,0,0-.73-1.63,2.61,2.61,0,0,0-.93-.59.17.17,0,0,0-.15,0,.16.16,0,0,0,0,.15,2.18,2.18,0,0,1,.15.53,2.45,2.45,0,0,1,0,.38v.24a5.69,5.69,0,0,0,.08.81,3.29,3.29,0,0,0,.23.83,2.73,2.73,0,0,0,.39.66s0,0,0,0l-.1.14a.14.14,0,0,0,0,.15.15.15,0,0,0,.12.07h0a1.24,1.24,0,0,1,.27,0h0l.07,0h.07a2.47,2.47,0,0,0,.65-.16l.13,0,.07,0,0,0a1.92,1.92,0,0,0,.25-.12,3.1,3.1,0,0,0,.86-.8,4.45,4.45,0,0,0,.67-1.47l0-.19c0-.14.07-.28.1-.44a.64.64,0,0,1,0-.07c0-.13.07-.26.11-.38l0-.14a.14.14,0,0,0,0-.11c0-.06,0-.12,0-.18A.12.12,0,0,0,238.86,245.87Zm-4.73-1.74a.13.13,0,0,0-.1.12.13.13,0,0,0,.06.14l.27.18a3,3,0,0,1,.45.43l.09.11a5.05,5.05,0,0,0,.6.63,3.44,3.44,0,0,0,.68.47,2.09,2.09,0,0,0,.81.25h.28a.11.11,0,0,0,.1-.07.75.75,0,0,0,.15-.09,1.65,1.65,0,0,0,.6-.74,2.58,2.58,0,0,0,.21-1,3.85,3.85,0,0,0-.34-1.43c-.11-.27-.24-.55-.4-.87l-.21-.44a.16.16,0,0,0-.14-.08.17.17,0,0,0-.12.1,3.57,3.57,0,0,0-.14.71,12.06,12.06,0,0,0-.1,2.56,2.71,2.71,0,0,0-2.09-1A2.35,2.35,0,0,0,234.13,244.13Zm-1.27-2.55a3,3,0,0,0-.74.15.14.14,0,0,0-.09.13.13.13,0,0,0,.09.13,3.34,3.34,0,0,1,.8.47l.08.06a5.86,5.86,0,0,0,.75.52,3.31,3.31,0,0,0,.76.34l.08,0h0a3.1,3.1,0,0,0,.68.1h.34a.2.2,0,0,0,.08,0,1.33,1.33,0,0,0,.23-.3,2.08,2.08,0,0,0,.24-.7s0-.09,0-.14a2.43,2.43,0,0,0-.14-1,3.62,3.62,0,0,0-.69-1.17l-.49-.57-.36-.41a.15.15,0,0,0-.15,0,.13.13,0,0,0-.09.13,7.28,7.28,0,0,0,.58,2.86A2.94,2.94,0,0,0,232.86,241.58Zm-3.17-2.47a1.94,1.94,0,0,0,.27.24l.3.27a4.12,4.12,0,0,0,.53.44,8.24,8.24,0,0,0,.9.52,2.41,2.41,0,0,0,.6.16,3.26,3.26,0,0,1,.42.1l.39.18a.11.11,0,0,0,.08,0,.11.11,0,0,0,.08,0,.16.16,0,0,0,0-.17q-.09-.18-.18-.39l0-.08a2.86,2.86,0,0,0-.5-.9,3.29,3.29,0,0,0-.94-.68,4.05,4.05,0,0,0-1.34-.35,3.6,3.6,0,0,0-.57,0,2.86,2.86,0,0,1-.51,0,.15.15,0,0,0-.15.1.14.14,0,0,0,.07.16A3.39,3.39,0,0,1,229.69,239.11Zm8.37,10.69a9.74,9.74,0,0,0-1.47.52,17.42,17.42,0,0,0-2.11,1,2.63,2.63,0,0,0,0-2.18,2.4,2.4,0,0,0-.81-.94.14.14,0,0,0-.15,0,.14.14,0,0,0-.06.14,2.46,2.46,0,0,1,0,.66c0,.11,0,.21-.07.32l0,.18c-.07.3-.15.62-.19.93a4.8,4.8,0,0,0,0,.92,4.1,4.1,0,0,0,.11.61l0,.08-.36.27-.09.07L232,253v-.06l-.14,0,.15,0a1.31,1.31,0,0,1,.2-.44,1.87,1.87,0,0,0,.17-.31,2.4,2.4,0,0,0-.61-2.49,4.72,4.72,0,0,0-.75-.53l-.15-.09,0,0a.15.15,0,0,0-.2,0,3.29,3.29,0,0,0-.65,1.11,2.75,2.75,0,0,0,.53,2.39,2.68,2.68,0,0,0,.75.56l-.77-.15-.1,0-.44-.08s0-.06,0-.09a3.09,3.09,0,0,0-.18-.59,4.21,4.21,0,0,0-.44-.8,8.67,8.67,0,0,0-.65-.82l-.06-.07a2.56,2.56,0,0,1-.2-.26,2.76,2.76,0,0,1-.31-.58.15.15,0,0,0-.12-.1.17.17,0,0,0-.13.07,2.31,2.31,0,0,0-.29,1.21,2.6,2.6,0,0,0,.94,1.95,18,18,0,0,0-2.33.06,11,11,0,0,0-1.55.2.15.15,0,0,0-.1.12.14.14,0,0,0,.08.15l1.07.45.53.2a4.92,4.92,0,0,0,1.74.33h.3a3,3,0,0,0,1-.22,2.67,2.67,0,0,0,.65-.39l.1-.1.27.06.54.11.42.09a3.28,3.28,0,0,0-.49.76.06.06,0,0,0,0,0,.53.53,0,0,0,.12.42.69.69,0,0,0,.49.23h0a.15.15,0,0,0,.13-.11,2.47,2.47,0,0,1,.53-1.06,2.68,2.68,0,0,1,1,.7.12.12,0,0,0,.12.05h.06a.7.7,0,0,0,.34-.44.54.54,0,0,0-.09-.42l0,0a3.56,3.56,0,0,0-.78-.46l.32-.27.46-.36.19-.16.14,0a2.33,2.33,0,0,0,.75.06,3.25,3.25,0,0,0,1.23-.36,5,5,0,0,0,1.4-1.1c.13-.13.25-.27.38-.41l.75-.89a.13.13,0,0,0,0-.16A.13.13,0,0,0,238.06,249.8ZM229.33,243a3.49,3.49,0,0,1,.43-.07,2.72,2.72,0,0,1,.84,5.36,3.21,3.21,0,0,1-.43.07,2.72,2.72,0,0,1-.84-5.36Zm-.82,3a1.5,1.5,0,1,0,1.35-1.85l-.24,0A1.49,1.49,0,0,0,228.51,246Z" transform="translate(-98.21 -199.53)"/><path class="cls-11" d="M229.26,288.68c-.1-.19,0-.4-.07-.61a1.36,1.36,0,0,0-.24-.5,1.91,1.91,0,0,0-.43-.79,1.36,1.36,0,0,0-.62-.74,1.7,1.7,0,0,0-.56-.54s-.07,0-.1,0a3,3,0,0,0-.73-.42c-.23-.06-.43-.23-.67-.27s-.65-.2-1-.2c-.09,0-.18,0-.26,0a2.08,2.08,0,0,0-1.13.15,1.62,1.62,0,0,0-1,.37,2.7,2.7,0,0,0-.7.39,3.06,3.06,0,0,0-1,.87,5.06,5.06,0,0,0-.57.93c0,.22-.2.38-.26.59a3.05,3.05,0,0,1-.14.54,2.5,2.5,0,0,0,0,1,1.11,1.11,0,0,0,0,.74,1.76,1.76,0,0,0,.14.82c.17.16.19.38.29.57a5.14,5.14,0,0,0,.35.55c.11.39.57.53.74.88a2.85,2.85,0,0,0,.53.35,1.67,1.67,0,0,0,.75.38,2.22,2.22,0,0,0,1.08.4.62.62,0,0,0,.41.1,2.78,2.78,0,0,0,.64,0,1.54,1.54,0,0,0,.82-.12c.2,0,.31-.2.55-.15a1.92,1.92,0,0,0,.57-.29,1.84,1.84,0,0,0,1-.72,1.58,1.58,0,0,0,.61-.62,2.43,2.43,0,0,0,.58-1,1.69,1.69,0,0,0,.29-.82,1.72,1.72,0,0,0,.08-1.06A1.44,1.44,0,0,0,229.26,288.68Zm-.27.54a.3.3,0,0,1-.21.23l0,0-.21,0-.63-.11a5.62,5.62,0,0,0-1.17-.07l-.22.09a3.81,3.81,0,0,1-.54.17.68.68,0,0,1-.26,0h-.08s-.06,0-.06,0a.55.55,0,0,1,0,.09h0l.08-.06.06,0,.06,0a1.86,1.86,0,0,0,.53,0,1.83,1.83,0,0,1,.62,0,4.16,4.16,0,0,1,1.64.52l0,0,0,0a.45.45,0,0,1,.18.2.75.75,0,0,1-.05.44.29.29,0,0,1-.21.15.52.52,0,0,1-.2-.06l0,0a9.34,9.34,0,0,0-1.62-.81l-.15,0-.1,0h-.15l-.21,0a.67.67,0,0,1-.52-.13l-.05-.05-.07.09.09,0,.17.08.21.1a.74.74,0,0,0,.3.08.9.9,0,0,1,.41.11,3.88,3.88,0,0,1,.87.74l.25.26,0,0,.08.1a.43.43,0,0,1,.12.51,1.33,1.33,0,0,1-.29.35l-.12,0a.48.48,0,0,1-.19-.05l-.08-.06c-.08-.11-.16-.23-.23-.35a2.65,2.65,0,0,0-.26-.39c-.08-.09-.15-.19-.23-.29a1.79,1.79,0,0,0-.52-.54l-.19-.1a1.11,1.11,0,0,1-.54-.41l0-.06,0,0a.2.2,0,0,1-.1.13s0,0,0,.08l.25.27a3.84,3.84,0,0,1,.74,1,5.14,5.14,0,0,1,.43,1.27l0,.1c0,.2,0,.33-.17.38a.54.54,0,0,1-.19.08l-.13.05-.07,0h0a.33.33,0,0,1-.21,0l-.05-.05a.35.35,0,0,1-.05-.08v-.05a7.42,7.42,0,0,0-.14-1.13l0-.13c0-.12-.08-.25-.13-.38a1.36,1.36,0,0,0-.24-.44,1.38,1.38,0,0,1-.31-.68h0a.5.5,0,0,0-.07-.13h-.17c0,.06,0,.11,0,.17a1.51,1.51,0,0,0,0,.3,2.3,2.3,0,0,1,.18,1.55,4.91,4.91,0,0,1-.28,1.19l0,.06a.45.45,0,0,1-.23.1h-.07l-.13,0a.6.6,0,0,1-.43-.19l-.05-.05v-.06a.82.82,0,0,1,.13-.35,1.26,1.26,0,0,0,.08-.18,2.21,2.21,0,0,0,.19-1.62,1.63,1.63,0,0,1,.16-.95.54.54,0,0,1-.18-.1l-.06.1a1.33,1.33,0,0,0-.37.7,2.46,2.46,0,0,1-1.18,1.92h-.05a.67.67,0,0,1-.62-.4l0-.07,0-.07a1,1,0,0,1,.32-.32l.12-.1.18-.19a2.87,2.87,0,0,0,.83-1.16l0-.06a4.64,4.64,0,0,1,.49-.5l0,0h0a.9.9,0,0,1-.15-.19l-.06,0a1.42,1.42,0,0,0-.63.55,1.93,1.93,0,0,1-.64.6,3.58,3.58,0,0,1-1.2.71H221a.57.57,0,0,1-.38-.34l-.06-.11a.3.3,0,0,1,0-.27.31.31,0,0,1,.21-.16l.19-.05a3.12,3.12,0,0,1,.48-.1,5.62,5.62,0,0,0,.73-.31h.05a1,1,0,0,0,.48-.34,1.37,1.37,0,0,1,.51-.38l.08-.05a.66.66,0,0,1,.21-.08h0s0-.06,0-.09,0,0,0,0h0a1,1,0,0,0-.37.13l-.3.16a2.07,2.07,0,0,1-.64.28,1.57,1.57,0,0,1-.53.11l-.21,0-.34,0h-.21a.72.72,0,0,1-.63-.21.77.77,0,0,1-.09-.47l0-.07a.46.46,0,0,1,.52-.14l.14,0,.23,0a6.27,6.27,0,0,0,1.31.1l.28-.12a2.3,2.3,0,0,1,.56-.18l.17,0h.07l.08,0v0a.74.74,0,0,1,0-.15.39.39,0,0,1-.18,0l0,0h-.07a2,2,0,0,0-.34,0l-.28,0a.81.81,0,0,1-.35,0,6.53,6.53,0,0,1-1.54-.56.55.55,0,0,1-.24-.46l0-.06a.62.62,0,0,0,0-.1c0-.12.08-.35.33-.37h.06l.2.14a9.75,9.75,0,0,0,1.12.73,1.76,1.76,0,0,0,.86.15h.08a1.77,1.77,0,0,1,.41.15l.09.05.08-.11-.07-.06a1.84,1.84,0,0,0-.71-.47,2.06,2.06,0,0,1-.92-.66,4,4,0,0,1-.71-.86l0-.06,0-.07a1,1,0,0,1,.42-.41l.13-.1.09.06a.62.62,0,0,1,.19.25.2.2,0,0,0,0,.08l.26.49a5.49,5.49,0,0,0,.86.79l.43.35.06.08a1.43,1.43,0,0,1,.19.37.59.59,0,0,1,.09-.11l0,0h0a2.46,2.46,0,0,0-.73-1.2l0,0a7.35,7.35,0,0,1-.64-1.26.42.42,0,0,1,0-.39l.05-.05.06,0a1,1,0,0,1,.47-.19.37.37,0,0,1,.34.21c.07.53.14.92.22,1.27a.54.54,0,0,1,.07.17.42.42,0,0,0,.08.19,2,2,0,0,1,.52,1.33h.18l-.05-.12V288a2.83,2.83,0,0,0-.25-1l0-.07a5.05,5.05,0,0,1,.08-1c0-.13,0-.25.05-.38v0a.64.64,0,0,1,0-.07c0-.12.1-.34.33-.35h.05l.06,0a.42.42,0,0,0,.14,0,.5.5,0,0,1,.41.19l0,.06a.47.47,0,0,1-.08.36l0,.09-.11.27a2,2,0,0,0-.22,1.39,1.36,1.36,0,0,1-.09.78l0,0-.1,0,.16.08.06-.1a1.07,1.07,0,0,0,.21-.41,2.55,2.55,0,0,1,.13-.29l.08-.3a1.84,1.84,0,0,1,.41-.91l.09-.1a1.5,1.5,0,0,1,.69-.55h.07a.8.8,0,0,1,.58.4l.06.11-.09.08c-.15.13-.3.24-.45.35a3.75,3.75,0,0,0-.53.44,1.4,1.4,0,0,0-.35.57,1.35,1.35,0,0,1-.6.81.3.3,0,0,1-.14.06.91.91,0,0,1,.18.21,3.07,3.07,0,0,1,.35-.28,1.6,1.6,0,0,0,.42-.35l.13-.15a1.66,1.66,0,0,1,.52-.46A3.38,3.38,0,0,1,228,287l.06,0,.06,0a.65.65,0,0,1,.3.6l0,.09-.29.1a6.76,6.76,0,0,0-1.42.59.9.9,0,0,0-.26.22,1,1,0,0,1-.49.36l-.06,0a1.08,1.08,0,0,1-.36.11h0a.45.45,0,0,1,0,.11v0a0,0,0,0,0,0,0,1.67,1.67,0,0,0,.67-.26,3,3,0,0,1,.44-.23,4.12,4.12,0,0,1,1.91-.16.41.41,0,0,1,.31.25A.74.74,0,0,1,229,289.22Z" transform="translate(-98.21 -199.53)"/><path class="cls-11" d="M236.35,270.52l0-.09a1.44,1.44,0,0,0-.36-.46,6.05,6.05,0,0,0-.64-2h0a1.72,1.72,0,0,1,.28.08.27.27,0,0,0,.12,0l.09,0,.05-.06a.25.25,0,0,0,0-.17.71.71,0,0,0,0-.23,3.57,3.57,0,0,0-.29-.73,1,1,0,0,0-1.19-.4,9.2,9.2,0,0,0-2-1.5l.44-.11.1-.05.05,0,0-.35s-.13-.07-.18-.1a.51.51,0,0,0-.13-.09,1.88,1.88,0,0,0-1.73-.13.92.92,0,0,0-.25.2,4.38,4.38,0,0,0-1.1-.13,6.22,6.22,0,0,0-1.38.13l.12-.14.09-.12a.48.48,0,0,0,.05-.55l-.07-.06-.14,0-.38.07a1.93,1.93,0,0,0-1.53,1.23l0,.06c0,.1-.1.16-.32.27a2.8,2.8,0,0,0-.25.14,5.67,5.67,0,0,0-1.18.94,2.16,2.16,0,0,0,0-.51l0-.09-.07,0a.31.31,0,0,0-.15-.06h-.08l0,.06a5.7,5.7,0,0,0-.59.61,2.09,2.09,0,0,0-.45,1.73.65.65,0,0,1-.11.34,1.44,1.44,0,0,0-.13.32,6.3,6.3,0,0,0-.41,3.1,2.32,2.32,0,0,1,.07.38,1.87,1.87,0,0,0,0,.25,1.43,1.43,0,0,0,0,.22v.12a7.71,7.71,0,0,0,.44,1.11.7.7,0,0,0-.23-.11l-.07,0-.07,0c-.2.09-.13.36-.09.5l.17,0h0l-.16.09a2,2,0,0,0,.42.84,1.16,1.16,0,0,0,.46.38,1.09,1.09,0,0,0,.68,0,7.81,7.81,0,0,0,1.74,1.4,3.29,3.29,0,0,0-.64.12.21.21,0,0,0-.16.16.21.21,0,0,0,.1.22,2.9,2.9,0,0,0,1.28.66,1.85,1.85,0,0,0,.57.06.78.78,0,0,0,.73-.48,6.75,6.75,0,0,0,2.06.11q-.13.15-.27.33l0,.08a.27.27,0,0,0,.13.27l0,0h.48a2.19,2.19,0,0,0,1.66-.82.65.65,0,0,0,.11-.42l0,0,.24-.12a7.26,7.26,0,0,0,1.5-1,4.16,4.16,0,0,0-.06.46v.05l0,0a.28.28,0,0,0,.26.15H234l.05,0a2.34,2.34,0,0,0,1.25-1.85.62.62,0,0,0-.05-.25.49.49,0,0,0-.15-.22,6.81,6.81,0,0,0,.78-2.19,2.65,2.65,0,0,0,.34.32l.06,0h.11a.22.22,0,0,0,.22-.17,2.84,2.84,0,0,0,0-.63A2.62,2.62,0,0,0,236.35,270.52Zm-8.21,5.83Zm.41-.16-.37,0h-.05a1,1,0,0,0-.52.15.28.28,0,0,0-.14.25.2.2,0,0,0,.13.17l.09.08a4.83,4.83,0,0,1-1.19-.49l-.19-.09c-.05,0-.05-.15,0-.32a1.09,1.09,0,0,0,0-.36,1.79,1.79,0,0,0-.73-.94,2.5,2.5,0,0,0-.55-.26,1.2,1.2,0,0,0-.3-.05l-.12,0-.09.15,0,.08c0,.09.06.19.1.28a6.78,6.78,0,0,1-.76-1.13c0-.07.06-.18.14-.29a.88.88,0,0,0,.2-.38c.22-.55-.31-1.64-.39-1.74l-.05,0a.24.24,0,0,0-.2-.09h-.05l-.1.07a1.06,1.06,0,0,0-.16.38,5.72,5.72,0,0,1,0-1.65c0-.05,0-.08.13-.14a1.25,1.25,0,0,0,.19-.15,1.11,1.11,0,0,0,.94-1v-.07a2.29,2.29,0,0,0,0-.77l0-.17-.16,0a.59.59,0,0,0-.24.11l.05-.07.18-.33a6.07,6.07,0,0,1,.72-.86.57.57,0,0,1,.34,0l.08,0a1.45,1.45,0,0,0,.59,0,2.52,2.52,0,0,0,1.08-.48,1.8,1.8,0,0,0,.26-.29l.08-.1,0-.08a.21.21,0,0,0-.1-.24l0-.08h-.09l-.49,0,.18-.09a8.74,8.74,0,0,1,.9-.33l.28-.08a1.15,1.15,0,0,1,.94.32,1.74,1.74,0,0,0,.28.19,1.21,1.21,0,0,0,.31.18l0,0a.87.87,0,0,0,.47.09.77.77,0,0,0,.55-.14l.06,0a.31.31,0,0,0,.15-.22v-.11l-.06,0-.21-.17h0a4.3,4.3,0,0,1,1.17.44l.29.14a.6.6,0,0,1,.06.29,1,1,0,0,0,0,.12,1.48,1.48,0,0,0,.92,1.31v0h0l0-.05,0,.05a2.69,2.69,0,0,0,.38.12.52.52,0,0,0,.21,0h.06l.05,0c.19-.17.06-.39,0-.48l0-.05,0,0a8.07,8.07,0,0,1,.91,1.36l0,.08a.37.37,0,0,0,0,.11,2,2,0,0,0-.29.76,2.34,2.34,0,0,0,.15,1.09,3.55,3.55,0,0,0,.3.54l.1.1h.1a.3.3,0,0,0,.16-.06l.06-.07a.49.49,0,0,0,.09-.18l0-.08a.11.11,0,0,1,0,.05,5,5,0,0,1-.05,1.24c-.36,0-.75.49-.82.58a2.22,2.22,0,0,0-.46,1,2.16,2.16,0,0,0,0,.63c0,.06,0,.2.27.21h.05l.05,0a1.22,1.22,0,0,0,.19-.12,5,5,0,0,1-1.05,1.33c-.11.07-.17.05-.29,0a1.3,1.3,0,0,0-1,0,3.14,3.14,0,0,0-1.13.83l-.09.08,0,.15.06.07a.79.79,0,0,0,.47.11,6.84,6.84,0,0,1-1.62.41c-.08,0-.1,0-.17-.17a1.14,1.14,0,0,0-.29-.35A1.49,1.49,0,0,0,228.55,276.19Zm-1.06,1.05h0Zm4.41-6.6a.28.28,0,0,1,0,.25.27.27,0,0,1-.17.18l-.06,0h-.07a.56.56,0,0,1-.48-.07l0,0a17.7,17.7,0,0,1-.94-2.11l0-.06a2.17,2.17,0,0,0-.15-.35c-.09.24-.16.49-.23.75a5.92,5.92,0,0,1-.38,1.12l0,.1h-.11a.28.28,0,0,1-.27-.17l0-.05c-.12-.21-.22-.42-.32-.63a5.91,5.91,0,0,0-.47-.9h0v0a.83.83,0,0,1,0,.15c-.15.83-.32,1.65-.51,2.44l0,.06a.52.52,0,0,1-.41.2h-.31l0-.06a.51.51,0,0,1-.06-.52,4.16,4.16,0,0,1,.13-.72c0-.15.07-.32.11-.52.17-1,.42-2.07.68-3l0-.06a.33.33,0,0,1,.21-.12l.14,0,0,0a1.25,1.25,0,0,1,.21.37l.11.23a6.19,6.19,0,0,1,.32.63,6.77,6.77,0,0,0,.33.66c.1-.3.19-.61.27-.9s.21-.72.34-1.07c.05-.1.11-.15.19-.15a.31.31,0,0,1,.24.12l0,.05c.25.61.52,1.22.79,1.83s.65,1.46,1,2.21A.39.39,0,0,0,231.9,270.64Zm.26,4v.08l0,.1a.44.44,0,0,1-.38.13h-.16l-.1-.05a2,2,0,0,1-.45-.74c-.11-.24-.18-.42-.27-.63s-.16-.4-.28-.68l-.07-.2a1.38,1.38,0,0,0-.08-.2,4.34,4.34,0,0,0-.14.43c0,.1-.05.19-.09.29a6.89,6.89,0,0,1-.31.94l0,.1h-.1a.32.32,0,0,1-.29-.16l0,0,0-.05c-.13-.23-.25-.47-.36-.7s-.22-.44-.34-.65c0,.12,0,.23-.08.38a5,5,0,0,1-.11.57c0,.21-.09.41-.12.61s-.12.61-.22.94l0,0a.38.38,0,0,1-.32.16h-.31l-.06-.05a.48.48,0,0,1-.09-.5s0-.07,0-.1c.17-.79.32-1.58.49-2.36l.21-1c0-.22.08-.44.13-.66s.17-.21.22-.21c.21,0,.32.26.32.27l.13.28c.21.43.42.87.64,1.29a5.81,5.81,0,0,0,.25-.83,5.55,5.55,0,0,1,.34-1l0-.08.08,0a.33.33,0,0,1,.32.18l0,0c.37.89.75,1.77,1.13,2.66l.51,1.19A.43.43,0,0,1,232.16,274.66Z" transform="translate(-98.21 -199.53)"/><path class="cls-11" d="M111.69,254.64a.17.17,0,0,1,0,.18.15.15,0,0,1-.14.06h0l-.49-.14a4.81,4.81,0,0,1-.54-.16,3.93,3.93,0,0,1-1.2-.71,2.92,2.92,0,0,1-.72-.9,2.82,2.82,0,0,1-.24-1v-.07l-.06-.42a.15.15,0,0,1,.07-.15.14.14,0,0,1,.16,0,3.63,3.63,0,0,0,.33.28l.38.21a2.26,2.26,0,0,1,.54.32,8.18,8.18,0,0,1,.72.74,3,3,0,0,1,.38.55c.08.11.15.23.24.35l.19.31A2.79,2.79,0,0,0,111.69,254.64Zm-4.43-11.47a2.52,2.52,0,0,0,1,2.74l.07,0h0a.13.13,0,0,0,.15-.12.15.15,0,0,0,0-.07,2.17,2.17,0,0,1,0-.51,2.5,2.5,0,0,1,.06-.38l0-.14a6.51,6.51,0,0,0,.17-.9,3.53,3.53,0,0,0,0-.86,3.44,3.44,0,0,0-.21-.76v0a1.12,1.12,0,0,1-.08-.26h0a.13.13,0,0,0-.09-.1.11.11,0,0,0-.1,0l-.27,0h-.12a2.1,2.1,0,0,0-.86.07,3.09,3.09,0,0,0-1,.54,4.4,4.4,0,0,0-1,1.23,5.86,5.86,0,0,0-.3.55c-.15.27-.3.54-.44.81a.15.15,0,0,0,0,.16.14.14,0,0,0,.08,0,.08.08,0,0,0,.07,0,7.07,7.07,0,0,0,1.13-.62A14.11,14.11,0,0,0,107.26,243.17Zm.33,4.76a2.08,2.08,0,0,0,.48.11h.17a.13.13,0,0,0,.13-.08.12.12,0,0,0,0-.15,1.64,1.64,0,0,1-.21-.25,3.92,3.92,0,0,1-.32-.53l0-.1a5.67,5.67,0,0,0-.42-.81,3.64,3.64,0,0,0-.52-.63,2,2,0,0,0-.72-.45l-.26-.08a.17.17,0,0,0-.12,0h0l-.17.05a1.68,1.68,0,0,0-.79.56,2.45,2.45,0,0,0-.47.94,3.91,3.91,0,0,0-.06,1.47c0,.32.09.63.15.95l.09.47a.14.14,0,0,0,.11.12h0a.13.13,0,0,0,.13-.07,3.9,3.9,0,0,0,.33-.64,11.83,11.83,0,0,0,.78-2.45A2.7,2.7,0,0,0,107.59,247.93Zm1.47,3a3,3,0,0,0,.6,0,.14.14,0,0,0,.12-.1.12.12,0,0,0,0-.15,2.92,2.92,0,0,1-.67-.65,7.76,7.76,0,0,0-.67-.76,3.65,3.65,0,0,0-.66-.52l-.1-.05a3.52,3.52,0,0,0-.63-.27l-.07,0-.2-.05,0,0a.13.13,0,0,0-.12,0,.86.86,0,0,0-.27.22l0,0a2.12,2.12,0,0,0-.42.62l0,.13a2.33,2.33,0,0,0-.1,1,3.46,3.46,0,0,0,.39,1.3c.11.23.23.46.35.69s.16.31.23.47a.21.21,0,0,0,.11.08h0a.14.14,0,0,0,.12-.11,7.25,7.25,0,0,0,.12-2.9A3,3,0,0,0,109.06,251Zm9.73-8.69-.28-.07h-.09l-.16,0a2.2,2.2,0,0,0-.72,0h-.11l-.27,0a.14.14,0,0,0-.13.09.13.13,0,0,0,0,.15l.14.15h0a2.68,2.68,0,0,0-.25.72,3.1,3.1,0,0,0-.07.86,4.38,4.38,0,0,0,.09.82l0,.23c0,.12,0,.25,0,.38a2.26,2.26,0,0,1,0,.54.17.17,0,0,0,0,.15l.07,0a.1.1,0,0,0,.09,0,2.55,2.55,0,0,0,.79-.75,2.52,2.52,0,0,0,.39-1.75c.26.22.52.41.79.6s.61.51.9.73a8.81,8.81,0,0,0,1.09.71h0c.06,0,.14,0,.15-.12a.11.11,0,0,0,0-.11l0-.12s0,0,0,0a.12.12,0,0,0,0-.11h0c-.07-.15-.15-.3-.23-.45l0-.09a3.54,3.54,0,0,0-.16-.34l-.1-.23a4.51,4.51,0,0,0-1-1.3A2.83,2.83,0,0,0,118.79,242.26Zm1.88,3.94a1.79,1.79,0,0,0-.74-.61l-.17-.07h0a.17.17,0,0,0-.12,0l-.26.06a2.08,2.08,0,0,0-.75.41,3.49,3.49,0,0,0-.57.58,6,6,0,0,0-.45.71l-.09.16a3.54,3.54,0,0,1-.35.51c-.07.08-.15.15-.23.23a.17.17,0,0,0,0,.15.16.16,0,0,0,.12.09h0a2.61,2.61,0,0,0,.66-.06,2.74,2.74,0,0,0,1.86-1.41,12.57,12.57,0,0,0,.59,2.51,5.21,5.21,0,0,0,.28.66.14.14,0,0,0,.11.07h0a.12.12,0,0,0,.12-.1l.12-.47c.09-.34.17-.65.22-.94a3.65,3.65,0,0,0,0-1.46A2.6,2.6,0,0,0,120.67,246.2Zm-1.29,3.37a1.81,1.81,0,0,0-.39-.64.82.82,0,0,0-.27-.25.12.12,0,0,0-.13,0l0,0a.78.78,0,0,0-.21,0l-.06,0a2.9,2.9,0,0,0-.64.24h0l-.07,0a4.29,4.29,0,0,0-.69.48,7.21,7.21,0,0,0-.66.7l0,0a3.55,3.55,0,0,1-.69.62.12.12,0,0,0-.06.14.13.13,0,0,0,.11.11h.08a3,3,0,0,0,2.55-1,7.13,7.13,0,0,0,0,2.91.14.14,0,0,0,.12.11h0a.13.13,0,0,0,.14-.07l.28-.49L119,252a3.94,3.94,0,0,0,.45-1.28,2.55,2.55,0,0,0-.07-1Zm-2.58,2.05a.12.12,0,0,0-.16,0,2.41,2.41,0,0,1-.35.25,2.83,2.83,0,0,1-.39.19,2,2,0,0,0-.57.28,7.45,7.45,0,0,0-.77.68,4,4,0,0,0-.44.53l-.24.33-.22.28a3,3,0,0,1-.44.53.14.14,0,0,0,0,.17.12.12,0,0,0,.1.07h.06a2.46,2.46,0,0,1,.5-.1c.18,0,.38-.07.56-.12a4.11,4.11,0,0,0,1.24-.62,3.18,3.18,0,0,0,.79-.85,2.88,2.88,0,0,0,.31-1l0-.09c0-.15.06-.29.09-.41A.13.13,0,0,0,116.8,251.62ZM106,241.54h0a12.24,12.24,0,0,0,1.55-.1,19.54,19.54,0,0,0,2.3-.41,2.57,2.57,0,0,0-.54,2.1,2.36,2.36,0,0,0,.52,1.13.13.13,0,0,0,.09,0h0a.14.14,0,0,0,.1-.11,2.32,2.32,0,0,1,.19-.64,2.59,2.59,0,0,1,.14-.29l0-.06a10.64,10.64,0,0,0,.49-.95,3.63,3.63,0,0,0,.27-.87,3.26,3.26,0,0,0,.06-.62v-.09l.42-.16.11,0,.7-.29a2.56,2.56,0,0,0-.62.7,2.77,2.77,0,0,0,0,2.45,3.26,3.26,0,0,0,.85,1l.07,0h0a.19.19,0,0,0,.15-.09l.1-.1a4.58,4.58,0,0,0,.64-.67,2.42,2.42,0,0,0,.11-2.57,1.86,1.86,0,0,0-.22-.27,1.1,1.1,0,0,1-.29-.39.05.05,0,0,0,0,0,.2.2,0,0,1,0-.07c.28.16.58.31.86.44l.11.06.4.19s0,.07,0,.1a3.14,3.14,0,0,0,0,.61,4,4,0,0,0,.2.89,8.36,8.36,0,0,0,.36.87l.09.18a1.88,1.88,0,0,1,.12.3,3,3,0,0,1,.15.65.13.13,0,0,0,.09.12h0a.14.14,0,0,0,.12,0,2.52,2.52,0,0,0,.6-1.09,2.63,2.63,0,0,0-.39-2.13,18.43,18.43,0,0,0,2.27.58c.39.07.75.14,1.12.18a2.86,2.86,0,0,0,.42,0,.12.12,0,0,0,.13-.08.13.13,0,0,0,0-.16l-.91-.73-.45-.33a5,5,0,0,0-1.59-.79,3.18,3.18,0,0,0-1.28-.12,2.73,2.73,0,0,0-.72.2l-.12.07-.26-.13-.49-.25-.37-.2a3.23,3.23,0,0,0,.67-.6l0,0a.54.54,0,0,0,0-.43.69.69,0,0,0-.42-.36.15.15,0,0,0-.17.07,2.55,2.55,0,0,1-.8.88,2.53,2.53,0,0,1-.74-.94.14.14,0,0,0-.16-.08.73.73,0,0,0-.44.33.53.53,0,0,0,0,.43.05.05,0,0,0,0,0,2.89,2.89,0,0,0,.62.64l-.39.18-.54.23-.22.09-.12-.07a2.52,2.52,0,0,0-.71-.26,3.25,3.25,0,0,0-1.28,0,5,5,0,0,0-1.65.67l-.47.3-1,.65a.15.15,0,0,0,.07.26Zm6.58,8.94h-.2a2.72,2.72,0,0,1-1.55-4.7,2.72,2.72,0,1,1,1.75,4.71Zm1.6-2.66a1.5,1.5,0,0,0-1.33-1.54h-.11a1.43,1.43,0,0,0-1.08.4,1.52,1.52,0,0,0-.48,1,1.5,1.5,0,0,0,3,.11Z" transform="translate(-98.21 -199.53)"/><path class="cls-11" d="M123.42,288.37a5.82,5.82,0,0,0-2.36-3,5.48,5.48,0,1,0,1.37,8.16A5.6,5.6,0,0,0,123.42,288.37Zm-.8,3.85a4.91,4.91,0,0,1-9.16-.88c0-.2-.1-.39-.11-.59a4.7,4.7,0,0,1,0-1.54c0-.22.11-.44.17-.66a5,5,0,0,1,3.09-3.14,4.86,4.86,0,0,1,3.63.18,5.43,5.43,0,0,1,1.72,1.32A5,5,0,0,1,122.62,292.22Z" transform="translate(-98.21 -199.53)"/><path class="cls-11" d="M116.9,288.51a5.37,5.37,0,0,1,3.95-1.05c.12,0,.29.07.39,0a.1.1,0,0,0,0-.07,3.75,3.75,0,0,0-1.55-1.1c-.08-.06-.2,0-.3-.06a4,4,0,0,0-1.64.88,3.59,3.59,0,0,0-.91,1.35S116.85,288.52,116.9,288.51Z" transform="translate(-98.21 -199.53)"/><path class="cls-11" d="M120.47,289.71s-.06,0-.09.05v.63a.28.28,0,0,1-.17.09c-.28.22-.63.23-.91.45a.51.51,0,0,1-.57-.13c-.19-.09-.37,0-.56-.05s-.15-.32-.12-.52a.43.43,0,0,0-.29-.22c-.26-.15,0-.44-.08-.65s-.25,0-.39-.1-.1-.28-.16-.42a.19.19,0,0,0-.23-.13c-.36.13-.43.51-.64.79-.05.07-.15.12-.17,0a5,5,0,0,1,1.12-2.78c.08-.16.29-.25.32-.44s-.11,0-.17-.07a4.64,4.64,0,0,0-1.47.63c-.16.15-.39.24-.48.43a4,4,0,0,0,.37,3c.07.09.13.22.23.25.1-.12,0-.28,0-.42s0-.26.07-.33c.51,0,.24.61.63.76s.35.35.59.45.39.24.63.29a.61.61,0,0,1,.44-.11c.27-.21.37.24.61.26s.48-.19.71-.31.37-.28.59-.27a4.73,4.73,0,0,1-1.13,2.69c-.08.14-.25.23-.29.4s.1,0,.16.06a3.84,3.84,0,0,0,1.41-.58c.18-.14.41-.23.53-.42a4.45,4.45,0,0,0,.1-1.81A3.54,3.54,0,0,0,120.47,289.71Z" transform="translate(-98.21 -199.53)"/><path class="cls-11" d="M119.39,288c-.15,0-.29,0-.4.07s0,.08,0,.12a4.87,4.87,0,0,1,2.21,1.88,7.32,7.32,0,0,1,.7,1.4.08.08,0,0,0,.1,0,4,4,0,0,0,.21-1.17c0-.47.12-1-.33-1.34A3.7,3.7,0,0,0,119.39,288Z" transform="translate(-98.21 -199.53)"/><path class="cls-11" d="M116.77,292.28c.23,0,.47.08.66,0,0-.06,0-.08-.05-.12a5.32,5.32,0,0,1-2.82-3.16c0-.07-.14-.17-.18-.05a4.6,4.6,0,0,0-.2,1.25c0,.4-.08.86.26,1.16A3.64,3.64,0,0,0,116.77,292.28Z" transform="translate(-98.21 -199.53)"/><path class="cls-11" d="M119.61,291.79s0-.05-.08,0a7.41,7.41,0,0,1-1.12.65,4.2,4.2,0,0,1-1.18.35,5.38,5.38,0,0,1-2,0s-.09,0-.08.07a3.17,3.17,0,0,0,.7.67A3.13,3.13,0,0,0,117,294a3.87,3.87,0,0,0,2.32-1.6A2,2,0,0,0,119.61,291.79Z" transform="translate(-98.21 -199.53)"/><path class="cls-11" d="M120.59,271.45a7,7,0,0,1-2.25,4.4l-1-.37a6.14,6.14,0,1,0-9.91-5.51,6.08,6.08,0,0,0,1.46,4.7l-1,.21a7.05,7.05,0,1,1,12.65-3.43Zm-9.8-.84c.72-1.08,1.5-2,2.15-3.09,0-.13-.13-.16-.23-.21l-.72-.08a.38.38,0,0,1-.12-.16,8.34,8.34,0,0,1,.16-1.42c.08-.11.2-.09.3-.1,1.13.18,2.38-.09,3.28.57.23.1.57.18.59.5a.57.57,0,0,1-.12.41,5.86,5.86,0,0,1-1.46.42c-.06,0-.15.13-.09.22.5,1.1,1,2.22,1.53,3.3,0,.1.17.2.28.11s.19-.11.32-.06.32.31.21.5-.37.23-.35.42c.28.64.54,1.29.88,1.92a.34.34,0,0,0,.13.09,3,3,0,0,1-.54.44,3,3,0,0,0-.27-.76,9.8,9.8,0,0,0-.54-1.09c-.09-.13-.19-.33-.37-.31-.33.09-.63.21-1,.28s-.36,0-.53.19c-.14.62-.1,1.28-.25,1.91-.31.28-1,.07-1.41,0-.05,0-.19-.12-.21-.18,0-.58.09-1.22.09-1.8-.1-.32-.35-.26-.58-.4-.52-.18-.72-.43-1.14-.54a5.13,5.13,0,0,0-.78.94c-.2.36-.26.37-.57.95a6.49,6.49,0,0,1-.49-.52s.22-.31.36-.45C109.92,271.83,110.14,271.47,110.79,270.61Zm3.47,1c0,.05,0,.12.09.17a.89.89,0,0,0,.36,0c.28-.11.67-.09.85-.37a10.39,10.39,0,0,0-.65-1.29c-.12-.24-.23-.55-.43-.67l-.07.06A16.79,16.79,0,0,0,114.26,271.61Zm-2.94-.58a3.5,3.5,0,0,0,1.23.63.29.29,0,0,0,.18-.12c0-.8.18-1.66.18-2.46,0-.08-.11-.05-.17,0-.19.27-.46.49-.62.76s-.4.52-.62.77C111.44,270.73,111.21,270.83,111.32,271Zm5.35,2.51c0,.11.06.12,0,.09C116.62,273.43,116.57,273.32,116.67,273.54Zm-7.31,2c.22-.18.55,0,.79-.14s.65-.17.72-.45a.21.21,0,0,0-.22-.12,21.94,21.94,0,0,1-2.15.58c-.14,0-.35-.08-.43.08a4.35,4.35,0,0,0,1.15,1c.14.09.3.22.47.17a1.81,1.81,0,0,0-.17-.59C109.49,275.9,109.34,275.77,109.36,275.58Zm1.88,0c0-.06.1-.11,0-.17-.31-.07-.56.26-.88.25s-.45,0-.54.18a3.92,3.92,0,0,0,.5,1.1.23.23,0,0,0,.29-.05c.1-.38-.15-.69-.08-1.08A2.16,2.16,0,0,1,111.24,275.58Zm3.48.52a7.24,7.24,0,0,1-.75-.24,6.59,6.59,0,0,0-2.69,0c-.13.09-.35.08-.32.34s0,.67.26.88a4,4,0,0,1,.89-.17,4.32,4.32,0,0,1,2.43.39c.08.1.18,0,.25-.08a5.64,5.64,0,0,0,.28-.85C115,276.21,114.84,276.18,114.72,276.1Zm.17-.42c-.06,0-.08.07-.11.11.14.27.54.18.71.43,0,.35-.21.62-.29.94,0,.07,0,.19.13.2a.28.28,0,0,0,.28,0q.31-.5.6-1c-.1-.2-.39-.2-.61-.27S115.16,275.76,114.89,275.68Zm1.77.18c-.45-.16-.79-.54-1.3-.59-.16,0-.12.19,0,.29a1.5,1.5,0,0,0,.68.39c.21.11.52.05.66.22-.06.39-.39.63-.5,1a.17.17,0,0,0,.2.08,6.32,6.32,0,0,0,1.42-.77c0-.06.15-.13.08-.2A4.19,4.19,0,0,1,116.66,275.86Zm0-2.32c0,.11.06.12,0,.09C116.62,273.43,116.57,273.32,116.67,273.54Z" transform="translate(-98.21 -199.53)"/><path class="cls-11" d="M123.42,288.37a5.82,5.82,0,0,0-2.36-3,5.48,5.48,0,1,0,1.37,8.16A5.6,5.6,0,0,0,123.42,288.37Zm-.8,3.85a4.91,4.91,0,0,1-9.16-.88c0-.2-.1-.39-.11-.59a4.7,4.7,0,0,1,0-1.54c0-.22.11-.44.17-.66a5,5,0,0,1,3.09-3.14,4.86,4.86,0,0,1,3.63.18,5.43,5.43,0,0,1,1.72,1.32A5,5,0,0,1,122.62,292.22Zm-5.8-3.76a3.59,3.59,0,0,1,.91-1.35,4,4,0,0,1,1.64-.88c.1,0,.22,0,.3.06a3.75,3.75,0,0,1,1.55,1.1.1.1,0,0,1,0,.07c-.1.07-.27,0-.39,0a5.37,5.37,0,0,0-3.95,1.05C116.85,288.52,116.84,288.5,116.82,288.46Zm4.28,2.75A4.45,4.45,0,0,1,121,293c-.12.19-.35.28-.53.42a3.84,3.84,0,0,1-1.41.58c-.06,0-.14,0-.16-.06s.21-.26.29-.4a4.73,4.73,0,0,0,1.13-2.69c-.22,0-.35.29-.59.27s-.48.21-.71.31-.34-.47-.61-.26a.61.61,0,0,0-.44.11c-.24-.05-.39-.24-.63-.29s-.32-.42-.59-.45-.12-.78-.63-.76c-.1.07-.06.23-.07.33s.06.3,0,.42c-.1,0-.16-.16-.23-.25a4,4,0,0,1-.37-3c.09-.19.32-.28.48-.43a4.64,4.64,0,0,1,1.47-.63c.06,0,.15,0,.17.07s-.24.28-.32.44a5,5,0,0,0-1.12,2.78c0,.12.12.07.17,0,.21-.28.28-.66.64-.79a.19.19,0,0,1,.23.13c.06.14,0,.38.16.42s.32-.09.39.1-.18.5.08.65a.43.43,0,0,1,.29.22c0,.2-.06.43.12.52s.37,0,.56.05a.51.51,0,0,0,.57.13c.28-.22.63-.23.91-.45a.28.28,0,0,0,.17-.09v-.63s.05-.07.09-.05A3.54,3.54,0,0,1,121.1,291.21Zm.82-2.33c.45.32.32.87.33,1.34a4,4,0,0,1-.21,1.17.08.08,0,0,1-.1,0,7.32,7.32,0,0,0-.7-1.4,4.87,4.87,0,0,0-2.21-1.88s-.08-.07,0-.12.25-.07.4-.07A3.7,3.7,0,0,1,121.92,288.88Zm-7.48,2.43c-.34-.3-.22-.76-.26-1.16a4.6,4.6,0,0,1,.2-1.25c0-.12.17,0,.18.05a5.32,5.32,0,0,0,2.82,3.16s.09.06.05.12c-.19.13-.43,0-.66,0A3.64,3.64,0,0,1,114.44,291.31Zm4.88,1.09A3.87,3.87,0,0,1,117,294a3.13,3.13,0,0,1-1.11-.51,3.17,3.17,0,0,1-.7-.67s0-.07.08-.07a5.38,5.38,0,0,0,2,0,4.2,4.2,0,0,0,1.18-.35,7.41,7.41,0,0,0,1.12-.65s.06,0,.08,0A2,2,0,0,1,119.32,292.4Z" transform="translate(-98.21 -199.53)"/><polygon class="cls-11" points="54.47 31.2 64.36 31.2 73.23 39.05 82.74 31.2 92.36 31.2 73.23 44.06 54.47 31.2"/><path class="cls-11" d="M145.32,276.13a26.66,26.66,0,0,1,5-10.13l0,0L141.72,243l13.21,18.49a26.2,26.2,0,0,1,6.44-3.65l-22-19,.07.13,5.74,37.48C145.25,276.38,145.29,276.26,145.32,276.13Z" transform="translate(-98.21 -199.53)"/><path class="cls-11" d="M197.71,276.13a26.66,26.66,0,0,0-5-10.13l0,0L201.31,243,188.1,261.53a26.38,26.38,0,0,0-6.44-3.65l22-19-.07.13-5.74,37.48C197.78,276.38,197.74,276.26,197.71,276.13Z" transform="translate(-98.21 -199.53)"/><path class="cls-11" d="M171.13,267.9a14.73,14.73,0,1,0,14.73,14.73A14.74,14.74,0,0,0,171.13,267.9Zm0,28.83a14.1,14.1,0,1,1,14.1-14.1A14.1,14.1,0,0,1,171.13,296.73Z" transform="translate(-98.21 -199.53)"/><path class="cls-11" d="M171.13,260.79A21.84,21.84,0,1,0,193,282.63,21.84,21.84,0,0,0,171.13,260.79Zm0,43a21.21,21.21,0,1,1,21.21-21.21A21.24,21.24,0,0,1,171.13,303.84Z" transform="translate(-98.21 -199.53)"/><path class="cls-11" d="M213.91,301.69l-.39-71.3h0v-2.68a22.93,22.93,0,0,0-13.59,2.64l-28.51,16.38L143,230.35h0a24.71,24.71,0,0,0-13.59-2.64v2.68h0L129,301.73l0,.61c2.76-9.47,10.68-10.78,10.68-10.78L136.82,234l34.58,24.66v0l0,0v0L206.06,234l-2.9,57.58s8.19,1.06,10.82,10.85Zm-9.55-11.05,3-59L171.47,257.2l-.05,0,0,0-35.83-25.55,2.92,59a15.75,15.75,0,0,0-8.31,6.27l.35-65.41h0V228.8h.87a23.78,23.78,0,0,1,10.75,2.43l29.27,16.83,29.08-16.7a22.64,22.64,0,0,1,10.31-2.68c.52,0,1,0,1.55.07v2.8h0l.36,65.21A14.73,14.73,0,0,0,204.36,290.64Z" transform="translate(-98.21 -199.53)"/><path class="cls-11" d="M228.34,258.2A12.76,12.76,0,1,0,242,270,12.79,12.79,0,0,0,228.34,258.2ZM230,280a9.14,9.14,0,1,1,8.42-9.81A9.13,9.13,0,0,1,230,280Z" transform="translate(-98.21 -199.53)"/><path class="cls-11" d="M223.76,280.09a9.39,9.39,0,1,0,10.08,8.65A9.4,9.4,0,0,0,223.76,280.09Zm1.2,15.66a6.32,6.32,0,1,1,5.82-6.78A6.33,6.33,0,0,1,225,295.75Z" transform="translate(-98.21 -199.53)"/><path class="cls-11" d="M244,243.31a14.34,14.34,0,1,0-10.58,17.24A14.23,14.23,0,0,0,244,243.31Zm-11.49,13.45a10.41,10.41,0,1,1,7.7-12.55A10.41,10.41,0,0,1,232.55,256.76Z" transform="translate(-98.21 -199.53)"/><path class="cls-11" d="M127,247.25a14.45,14.45,0,0,0-12.76-14.85c-.36,0-.73-.07-1.1-.08a14.4,14.4,0,0,0-14.93,13.85A14.48,14.48,0,0,0,111,261l1.1.08A14.42,14.42,0,0,0,127,247.25Zm-14.78,9.86a10.41,10.41,0,1,1,10.78-10A10.41,10.41,0,0,1,112.23,257.11Z" transform="translate(-98.21 -199.53)"/><path class="cls-11" d="M114.86,258.36a12.53,12.53,0,1,0,11,13.87A12.55,12.55,0,0,0,114.86,258.36Zm-2.39,21.11a8.71,8.71,0,1,1,9.64-7.67A8.7,8.7,0,0,1,112.47,279.47Z" transform="translate(-98.21 -199.53)"/><path class="cls-11" d="M119.29,280.6a9.46,9.46,0,1,0,8.34,10.46A9.46,9.46,0,0,0,119.29,280.6Zm-1.77,15.68a6.32,6.32,0,1,1,7-5.57A6.32,6.32,0,0,1,117.52,296.28Z" transform="translate(-98.21 -199.53)"/></g></g></svg>